<svg id="Layer_1" data-name="Layer 1" xmlns="http://www.w3.org/2000/svg" xmlns:xlink="http://www.w3.org/1999/xlink" viewBox="0 0 1041.28 554.14"><defs><style>.cls-1{fill:none;}.cls-2{fill:#f2f2f2;}.cls-3{opacity:0.1;}.cls-3,.cls-5{isolation:isolate;}.cls-4{fill:#65617d;}.cls-5{opacity:0.2;}.cls-6{fill:#3f3d56;}.cls-7{fill:#39374d;}.cls-8{fill:#4267b2;}.cls-9{fill:#fbbebe;}.cls-10{fill:#ff6584;}.cls-11{fill:#61dafb;}.cls-12{clip-path:url(#clip-path);}.cls-13{fill:#fff;}.cls-14{fill:#db3e3e;}.cls-15{fill:#6b73ce;}</style><clipPath id="clip-path"><path id="Path_309" data-name="Path 309" class="cls-1" d="M194.58,319.11h177.5V467.36l-177.5,4Z"/></clipPath></defs><title>1</title><g id="Group_24" data-name="Group 24"><g id="Group_23" data-name="Group 23"><path id="Path_299" data-name="Path 299" class="cls-2" d="M961.47,438.17q-1.74,3.75-3.47,7.41-2.7,5.66-5.33,11.12c-.78,1.6-1.56,3.19-2.32,4.77-8.6,17.57-16.63,33.11-23.45,45.89a73.21,73.21,0,0,1-63.81,38.69l-151.65,1.66h-1.6l-13,.14-11.12.12-34.1.37h-1.38l-17.36.19h-.53l-107,1.15-95.51,1-11.11.12-69,.75h-.08L304.9,552h-.48l-141.5,1.54-42.33.46a88.31,88.31,0,0,1-10.79-.54h0c-1.22-.14-2.44-.3-3.65-.49a87.43,87.43,0,0,1-51.29-27.54c-18.21-20-31.46-43.41-40.36-68.76q-1.93-5.49-3.6-11.12c-30.81-104.16,6.75-238.53,74.35-328.45q4.25-5.64,8.64-11l.07-.08c20.79-25.52,44.1-46.84,68.93-62,44-26.91,92.75-34.49,140.7-11.9C344.16,51.27,382,60.26,418.76,62.71c3.71.24,7.42.42,11.11.53C514.1,65.88,593,35.54,685.74,16c3.69-.78,7.39-1.55,11.12-2.28C763,.51,836.35-6.43,923.59,8.16a187.71,187.71,0,0,1,26.76,6.4q5.77,1.84,11.12,4c41.64,16.94,64.35,48.24,74,87.46q1.37,5.45,2.37,11.11C1055,211.46,1004.84,345.28,961.47,438.17Z"/><path id="Path_300" data-name="Path 300" class="cls-3" d="M497,445.58a95.22,95.22,0,0,1-1.87,11.12h93.7V445.58Zm-78.25,62.81,11.11-.1V480.83c-3.81-.17-7.52-.35-11.11-.53ZM185.84,445.58V456.7h198.5V445.58Zm849.68-339.53h-74V18.56q-5.35-2.16-11.12-4v91.49H696.86V13.63c-3.73.73-7.43,1.5-11.12,2.28v90.14H429.87V63.2c-3.69-.11-7.4-.29-11.11-.53v43.38H162.89v-62c-24.83,15.16-48.14,36.48-68.93,62h-.07v.08q-4.4,5.4-8.64,11h8.64V445.58h-83q1.66,5.63,3.6,11.12H93.88v93.62a86.18,86.18,0,0,0,12.2,2.78c1.21.19,2.43.35,3.65.49h0a84.49,84.49,0,0,0,10.79.54l42.33-.46v-97H418.76v94.21l11.11-.12V456.7H685.74v91.35l11.12-.12V456.7H950.35v4.77c.76-1.58,1.54-3.16,2.32-4.77q2.63-5.46,5.33-11.12,1.72-3.65,3.47-7.41v-321h76.42Q1036.89,111.48,1035.52,106.05ZM162.89,445.58V117.13H418.76V445.58Zm267,0V117.13H685.74V445.58Zm520.48,0H696.86V117.13H950.35Z"/><path id="Path_301" data-name="Path 301" class="cls-4" d="M863.08,533.62v13L711.16,548l-1.62,0-57.74.53-1.38,0-17.55.15h-.52l-107,1-175.61,1.63h-.15l-44.65.42h-.48l-198.4,1.82v-15l46.65-28,93.6-.78H249l2,0,44.94-.37,2,0h2.64l14.41-.12h.38l35.55-.3h.29l277.4-2.34,6.79,0h.68l5.18-.05,37.65-.31,2,0,1.85,0h1l11.71-.09,2.32,0,3.11,0,9.75-.09,15.47-.13,2,0,3.48,0h.65l74.71-.64Z"/><path id="Path_302" data-name="Path 302" class="cls-5" d="M863.08,533.62v13L711.16,548l-1.62,0-57.74.53-1.38,0-17.55.15h-.52l-107,1-175.61,1.63h-.15l-44.65.42h-.48l-198.4,1.82v-15l46.65-28,93.6-.78H249l2,0,44.94-.37,2,0h2.64l14.41-.12h.38l35.55-.3h.29l277.4-2.34,6.79,0h.68l5.18-.05,37.65-.31,2,0,1.85,0h1l11.71-.09,2.32,0,3.11,0,9.75-.09,15.47-.13,2,0,3.48,0h.65l74.71-.64Z"/><path id="Path_303" data-name="Path 303" class="cls-6" d="M296.09,483.63v24.48a6.12,6.12,0,0,1-3.5,5.54,5.86,5.86,0,0,1-2.5.6l-34.9.74a5.86,5.86,0,0,1-2.7-.57,6.11,6.11,0,0,1-3.57-5.57V483.63Z"/><path id="Path_304" data-name="Path 304" class="cls-3" d="M296.09,483.63v24.48a6.12,6.12,0,0,1-3.5,5.54,5.86,5.86,0,0,1-2.5.6l-34.9.74a5.86,5.86,0,0,1-2.7-.57,6.11,6.11,0,0,1-3.57-5.57V483.63Z"/><path id="Path_305" data-name="Path 305" class="cls-6" d="M298.09,483.63v24.48a6.12,6.12,0,0,1-3.5,5.54,5.86,5.86,0,0,1-2.5.6l-34.9.74a5.86,5.86,0,0,1-2.7-.57,6.11,6.11,0,0,1-3.57-5.57V483.63Z"/><rect id="Rectangle_137" data-name="Rectangle 137" class="cls-6" x="680.91" y="483.61" width="47.17" height="31.5"/><rect id="Rectangle_138" data-name="Rectangle 138" class="cls-3" x="680.91" y="483.61" width="47.17" height="31.5"/><rect id="Rectangle_139" data-name="Rectangle 139" class="cls-6" x="678.91" y="483.61" width="47.17" height="31.5"/><path id="Path_306" data-name="Path 306" class="cls-3" d="M298.08,483.61v5l-47.17,1.27v-6.24Z"/><path id="Path_307" data-name="Path 307" class="cls-4" d="M381.34,312.32v168.2a4,4,0,0,1-3.85,4l-191.65,5.1h-.05a4,4,0,0,1-3.95-3.95V312.32a4,4,0,0,1,3.95-3.95h191.6a4,4,0,0,1,3.95,3.95Z"/><path id="Path_308" data-name="Path 308" class="cls-3" d="M185.84,308.38v181.2h-.05a4,4,0,0,1-3.95-3.95V312.32a4,4,0,0,1,3.95-3.95Z"/><path id="Path_309-2" data-name="Path 309" class="cls-7" d="M194.58,319.11h177.5V467.36l-177.5,4Z"/><path id="Path_310" data-name="Path 310" class="cls-3" d="M726.08,483.61V490l-47.17-1.26v-5.15Z"/><path id="Path_311" data-name="Path 311" class="cls-4" d="M788.34,312.32V485.63a4,4,0,0,1-4,3.95h0l-191.69-5.11a4,4,0,0,1-3.85-4V312.32a4,4,0,0,1,4-3.95h191.6A4,4,0,0,1,788.34,312.32Z"/><path id="Path_312" data-name="Path 312" class="cls-3" d="M788.34,312.32V485.63a4,4,0,0,1-4,3.95h0V308.38h0a4,4,0,0,1,4,3.95Z"/><path id="Path_313" data-name="Path 313" class="cls-7" d="M775.58,319.11H598.08V467.36l177.5,4Z"/><path id="Path_314" data-name="Path 314" class="cls-4" d="M583.84,312.32v168.2a4,4,0,0,1-3.85,4l-191.65,5.1h0a4,4,0,0,1-4-3.95V312.32a4,4,0,0,1,4-3.95h191.6A4,4,0,0,1,583.84,312.32Z"/><path id="Path_315" data-name="Path 315" class="cls-8" d="M397.08,319.11h177.5V467.36l-177.5,4Z"/><path id="Path_316" data-name="Path 316" class="cls-3" d="M863.08,533.62v13L711.16,548l-1.62,0-57.74.53-1.38,0-17.55.15h-.52l-107,1-175.61,1.63h-.15l-44.65.42h-.48l-198.4,1.82v-15l202.51-1.33h.48l41-.29h.19l283.08-1.87h.93l4.79,0h1.46l74.49-.5,4.4,0h1Z"/><circle id="Ellipse_111" data-name="Ellipse 111" class="cls-9" cx="487.25" cy="298.12" r="51.33"/><path id="Path_317" data-name="Path 317" class="cls-9" d="M538.59,377.13s-99.5,12-90,0c3.44-4.35,4.39-17.21,4.2-31.85-.06-4.45-.22-9.06-.45-13.65-1.1-22-3.75-43.5-3.75-43.5s87-41,77-8.5c-4,13.13-2.69,31.57.35,48.88.89,5.05,1.92,10,3,14.7A344.75,344.75,0,0,0,538.59,377.13Z"/><path id="Path_318" data-name="Path 318" class="cls-10" d="M506.12,373.05c11.51-2.13,23.7-6,34.53-1.53,2.85,1.16,5.47,2.88,8.39,3.86s6.12,1.21,9.16,1.9c10.68,2.42,19.34,10.55,24.9,20s8.44,20.14,11.26,30.72l6.9,25.83c6,22.45,12,45.09,13.39,68.3a2434.78,2434.78,0,0,1-250.84,1.43c5.44-10.34,11-21.31,10.54-33s-7.19-23.22-4.76-34.74c1.55-7.34,6.57-13.39,9.64-20.22,8.75-19.52,1.94-45.78,17.32-60.65,6.92-6.68,17-9.21,26.63-8.89,12.28.41,24.85,4.24,37,6.11C475.74,374.53,490.44,375.93,506.12,373.05Z"/><path id="Path_319" data-name="Path 319" class="cls-3" d="M637,484.22l-.1,1.43v.1l-.17,2.3-1.33,18.51-1.61,22.3-.46,6.28-1,13.44v.17l-107,1-175.59,1.9v.84h-.14v-1.11l.45-14.36.86-28.06.74-23.79.07-2.37a10.53,10.53,0,0,1,10.85-10.21l.57,0c4.72.4,10.85.89,18.18,1.41l3,.22c42.33,2.94,120.56,6.73,199.5,2,1.66-.1,3.33-.19,5-.31,12.24-.78,24.47-1.77,36.58-3A10.53,10.53,0,0,1,637,482.32a11.45,11.45,0,0,1,0,1.85Z"/><path id="Path_320" data-name="Path 320" class="cls-6" d="M349.73,552.49v-.84l175.62-1.91,107-1h.3v-.16l1-13.44.43-6,1.64-22.61,1.29-17.9v-.45a10.66,10.66,0,0,0-.11-2.46v-.1a10.38,10.38,0,0,0-2-4.64,10.5,10.5,0,0,0-9.42-4c-12.11,1.24-24.34,2.23-36.58,3-1.67.12-3.34.22-5,.31-78.94,4.69-157.17.89-199.5-2l-3-.22c-7.33-.52-13.46-1-18.18-1.41A10.53,10.53,0,0,0,352,485.19a11.12,11.12,0,0,0-.18,1.64L351.12,509l-.93,28.06-.44,14.36v1.12Z"/><path id="Path_321" data-name="Path 321" class="cls-3" d="M637.32,491.23l-1.23,15.34-1.83,22.84-.46,5.72-1,12.81-.06.64v.17h0l-.15,1.48.11-1.48h-.29l-107,1-175.65,1.9v-.28l.49-14.36,1-28.06.64-18.65a6.35,6.35,0,0,1,6.84-6.15c2.1.17,4.68.37,7.69.59,4.89.36,10.92.79,17.94,1.22,13,.82,29.31,1.7,48,2.42,52,2,122.2,2.67,188.88-3.17,3-.26,6.1-.55,9.13-.84a6.34,6.34,0,0,1,3.48.66,6.91,6.91,0,0,1,.86.54,6.22,6.22,0,0,1,2,2.46,4.6,4.6,0,0,1,.25.61A6.36,6.36,0,0,1,637.32,491.23Z"/><path id="Path_322" data-name="Path 322" class="cls-3" d="M298.09,504.92v3.19a6.12,6.12,0,0,1-3.5,5.54l-40.1.77a6.11,6.11,0,0,1-3.57-5.57v-3Z"/><path id="Path_323" data-name="Path 323" class="cls-6" d="M298.58,515.54l-52.25,1v-8.68l52.25-1Z"/><path id="Path_324" data-name="Path 324" class="cls-3" d="M298.58,515.54l-52.25,1v-8.68l52.25-1Z"/><path id="Path_325" data-name="Path 325" class="cls-6" d="M300.58,515.54l-52.25,1v-8.68l52.25-1Z"/><path id="Path_326" data-name="Path 326" class="cls-3" d="M679.21,506.92v3.19a6.12,6.12,0,0,0,3.5,5.54l40.1.77a6.11,6.11,0,0,0,3.57-5.57v-3Z"/><path id="Path_327" data-name="Path 327" class="cls-3" d="M678.71,517.54l52.25,1v-8.68l-52.25-1Z"/><path id="Path_328" data-name="Path 328" class="cls-6" d="M676.71,517.54l52.25,1v-8.68l-52.25-1Z"/><path id="Path_329" data-name="Path 329" class="cls-6" d="M454.78,313.85c.08,7-3.16,13.6-5.91,20.07a163.47,163.47,0,0,0-12.66,74.71c.73,11,2.58,22,.73,32.9s-8.43,21.77-19,24.9c17.53,10.45,41.26,9.35,57.76-2.66,8.79-6.4,15.34-15.33,21.75-24.11a97.9,97.9,0,0,1-13.31,44.75,103.46,103.46,0,0,0,73.51-40.82c4.31-5.81,8.06-12.19,9.72-19.23,3.09-13-1.22-26.51-4.51-39.5a266.28,266.28,0,0,1-6.17-33c-.43-3.56-.78-7.22.1-10.7,1-4.07,3.67-7.51,5.64-11.22,5.6-10.54,5.73-23.3,2.86-34.88s-8.49-22.26-14.06-32.81c-4.46-8.46-9.3-17.31-17.46-22.28-5.1-3.1-11-4.39-16.88-5.64l-25.37-5.43c-5.55-1.19-11.26-2.38-16.87-1.51-9.47,1.48-16.14,8.32-22,15.34-4.59,5.45-15.81,15.7-16.6,22.86-.72,6.59,5.1,17.63,6.09,24.58,1.3,9,2.22,6,7.3,11.51C452.65,305.1,454.72,309.05,454.78,313.85Z"/></g><g id="React-icon"><path id="Path_330" data-name="Path 330" class="cls-11" d="M730,395.74c0-5.83-7.3-11.35-18.49-14.78,2.58-11.4,1.43-20.47-3.62-23.38a8,8,0,0,0-4-1v4a4.17,4.17,0,0,1,2,.47c2.44,1.4,3.5,6.72,2.67,13.57-.2,1.69-.52,3.46-.92,5.27a87.56,87.56,0,0,0-11.38-1.95,87.69,87.69,0,0,0-7.46-9c5.84-5.44,11.33-8.41,15.06-8.41v-4h0c-4.93,0-11.38,3.51-17.91,9.61-6.53-6.06-13-9.54-17.91-9.54v4c3.71,0,9.21,3,15.06,8.36a85.5,85.5,0,0,0-7.41,8.94,84.66,84.66,0,0,0-11.4,2c-.41-1.8-.71-3.53-.93-5.2-.84-6.85.2-12.18,2.62-13.6a4.07,4.07,0,0,1,2.06-.46v-4h0a8,8,0,0,0-4,1c-5,2.9-6.17,12-3.57,23.33-11.15,3.44-18.41,8.94-18.41,14.75s7.3,11.35,18.48,14.78c-2.58,11.4-1.43,20.48,3.62,23.38a7.94,7.94,0,0,0,4,1c4.93,0,11.38-3.51,17.91-9.61,6.53,6.06,13,9.54,17.91,9.54a8.09,8.09,0,0,0,4.06-1c5-2.9,6.16-12,3.56-23.33C722.71,407.07,730,401.55,730,395.74Zm-23.35-12c-.66,2.31-1.49,4.7-2.42,7.08-.73-1.43-1.51-2.87-2.35-4.3s-1.7-2.83-2.58-4.2c2.55.38,5,.84,7.35,1.42Zm-8.21,19.1c-1.4,2.42-2.83,4.72-4.32,6.85-2.67.23-5.38.36-8.1.36s-5.42-.13-8.07-.34c-1.49-2.14-2.93-4.41-4.34-6.82s-2.61-4.72-3.73-7.13c1.11-2.4,2.37-4.81,3.71-7.16s2.84-4.71,4.32-6.85c2.68-.23,5.38-.36,8.1-.36s5.42.13,8.07.34q2.24,3.21,4.34,6.82c1.36,2.35,2.61,4.73,3.73,7.13-1.13,2.4-2.37,4.81-3.71,7.16Zm5.79-2.33c1,2.4,1.79,4.8,2.48,7.13-2.35.58-4.83,1.06-7.39,1.44.88-1.38,1.76-2.8,2.58-4.25s1.6-2.89,2.33-4.33ZM686,419.68c-1.76-1.83-3.42-3.75-5-5.74,1.62.07,3.27.12,4.94.12s3.35,0,5-.12A70.71,70.71,0,0,1,686,419.68Zm-13.34-10.57q-3.82-.56-7.35-1.41c.66-2.32,1.49-4.7,2.42-7.09.73,1.44,1.5,2.87,2.35,4.3S671.8,407.75,672.68,409.11Zm13.25-37.31a73.39,73.39,0,0,1,5,5.74c-1.61-.07-3.26-.13-4.93-.13s-3.35,0-5,.13A69.05,69.05,0,0,1,685.93,371.8Zm-13.27,10.56c-.88,1.38-1.76,2.8-2.58,4.25s-1.6,2.87-2.33,4.3c-1-2.4-1.79-4.8-2.48-7.14C667.62,383.22,670.1,382.74,672.66,382.36Zm-16.23,22.45c-6.34-2.71-10.45-6.26-10.45-9.07s4.11-6.39,10.45-9.08c1.55-.66,3.23-1.25,5-1.81a86.09,86.09,0,0,0,4,10.92,84.2,84.2,0,0,0-4,10.87c-1.77-.56-3.46-1.17-5-1.83Zm9.65,25.62c-2.44-1.4-3.5-6.72-2.67-13.57.2-1.69.52-3.46.91-5.27a88,88,0,0,0,11.39,2,86.41,86.41,0,0,0,7.46,9c-5.85,5.44-11.33,8.41-15.06,8.41a4.22,4.22,0,0,1-2-.48Zm42.53-13.66c.85,6.85-.2,12.17-2.61,13.59a4,4,0,0,1-2.07.47c-3.71,0-9.21-3-15.06-8.36a84.59,84.59,0,0,0,7.41-9,83.09,83.09,0,0,0,11.4-2,51.39,51.39,0,0,1,.93,5.22Zm6.9-12c-1.54.66-3.22,1.25-5,1.81a86.09,86.09,0,0,0-4-10.92,82.69,82.69,0,0,0,4-10.87q2.67.84,5,1.83c6.35,2.71,10.46,6.26,10.46,9.08s-4.13,6.38-10.47,9.07Z"/><circle id="Ellipse_112" data-name="Ellipse 112" class="cls-11" cx="685.97" cy="395.74" r="8.19"/></g><g class="cls-12"><rect class="cls-13" x="350.19" y="310.52" width="5.49" height="42.27" transform="translate(-131.24 319.9) rotate(-41.83)"/><rect class="cls-13" x="338.88" y="320.64" width="5.49" height="42.27" transform="translate(-140.87 314.94) rotate(-41.83)"/><rect class="cls-13" x="206.18" y="439.41" width="5.49" height="42.27" transform="translate(-253.9 256.71) rotate(-41.83)"/><rect class="cls-13" x="217.49" y="429.29" width="5.49" height="42.27" transform="translate(-244.27 261.67) rotate(-41.83)"/><rect class="cls-13" x="277.54" y="370.22" width="5.49" height="52.93" transform="translate(-193.12 288.02) rotate(-41.83)"/><rect class="cls-13" x="299.17" y="354.54" width="5.49" height="45.38" transform="translate(-174.64 297.49) rotate(-41.83)"/><rect class="cls-13" x="288.33" y="364.24" width="5.49" height="45.38" transform="translate(-183.87 292.74) rotate(-41.83)"/><rect class="cls-13" x="266.65" y="383.64" width="5.49" height="45.38" transform="translate(-202.33 283.23) rotate(-41.83)"/><rect class="cls-13" x="255.82" y="393.34" width="5.49" height="45.38" transform="translate(-211.56 278.47) rotate(-41.83)"/><path class="cls-14" d="M215.15,481.74c9.13-8.65,15.28-23.07,18.82-44.1l4.2-24.92a68,68,0,0,1,63.3-56.8l24.34-1.42c21.84-1.29,38-6.5,48.11-15.47l7.3,8.21c-12,10.65-30.4,16.78-54.76,18.22l-24.34,1.42A57,57,0,0,0,249,414.55l-4.2,24.92c-3.94,23.46-11.17,39.9-22.1,50.24Z"/><path class="cls-15" d="M188.56,452l-7.09-8.38c11.48-9.72,28.61-15.09,52.37-16.43l25.22-1.42a57,57,0,0,0,53.25-47.53l4.11-24c4.12-24.05,12.25-41.69,24.16-52.41l7.34,8.15c-10,9-17,24.55-20.68,46.11l-4.11,24a67.94,67.94,0,0,1-63.45,56.64l-25.23,1.42C213.16,439.38,198.15,443.91,188.56,452Z"/></g></g></svg>