<svg id="ac356da0-b129-4ca5-aecc-4700531dd101" xmlns="http://www.w3.org/2000/svg" xmlns:xlink="http://www.w3.org/1999/xlink" viewBox="0 0 1129 663"><defs><style>.cls-1{fill:none;}.cls-2{fill:#f2f2f2;}.cls-3{fill:#3f3d56;}.cls-4{opacity:0.2;}.cls-4,.cls-8{isolation:isolate;}.cls-5{fill:#606060;}.cls-6{fill:#2e8555;}.cls-7{fill:#3ecc5f;}.cls-8{opacity:0.1;}.cls-9{clip-path:url(#clip-path);}.cls-10{fill:#fdfdff;}.cls-11{fill:#919191;}.cls-12{fill:#848484;}.cls-13{fill:#a5a5a5;}.cls-14{fill:#b1b1b2;}</style><clipPath id="clip-path"><path id="Path_309" data-name="Path 309" class="cls-1" d="M172.75,213.5h327.5a4.75,4.75,0,0,1,4.75,4.75v366.5a4.75,4.75,0,0,1-4.61,4.75l-327.5,9.85A4.75,4.75,0,0,1,168,594.6V218.25A4.75,4.75,0,0,1,172.75,213.5Z"/></clipPath></defs><title>2</title><circle class="cls-2" cx="321" cy="321" r="321"/><ellipse class="cls-3" cx="559" cy="635.5" rx="514" ry="27.5"/><ellipse class="cls-4" cx="558" cy="627" rx="460" ry="22"/><rect class="cls-3" x="131" y="152.5" width="840" height="50"/><path class="cls-3" d="M131,608.83a21.67,21.67,0,0,0,21.67,21.67H949.33A21.67,21.67,0,0,0,971,608.83h0V177.5H131Z"/><path class="cls-3" d="M949.33,117.5H152.67A21.67,21.67,0,0,0,131,139.17h0V177.5H971V139.17a21.67,21.67,0,0,0-21.67-21.67Z"/><path class="cls-4" d="M949.33,117.5H152.67A21.67,21.67,0,0,0,131,139.17h0V177.5H971V139.17a21.67,21.67,0,0,0-21.67-21.67Z"/><circle class="cls-3" cx="181" cy="147.5" r="13"/><circle class="cls-3" cx="217" cy="147.5" r="13"/><circle class="cls-3" cx="253" cy="147.5" r="13"/><rect class="cls-5" x="168" y="213.5" width="337" height="386" rx="5.34" ry="5.34"/><rect class="cls-6" x="603" y="272.5" width="284" height="22" rx="5.48" ry="5.48"/><rect class="cls-6" x="537" y="352.5" width="416" height="15" rx="5.48" ry="5.48"/><rect class="cls-6" x="537" y="396.5" width="416" height="15" rx="5.48" ry="5.48"/><rect class="cls-6" x="537" y="440.5" width="416" height="15" rx="5.48" ry="5.48"/><rect class="cls-6" x="537" y="484.5" width="416" height="15" rx="5.48" ry="5.48"/><rect class="cls-7" x="865" y="552.5" width="88" height="26" rx="7.03" ry="7.03"/><path class="cls-3" d="M1053.1,506.12a30.19,30.19,0,0,0,4-15.27c0-13.8-8.55-25-19.09-25s-19.08,11.18-19.08,25a30.18,30.18,0,0,0,4,15.27,31.25,31.25,0,0,0,0,30.53,31.25,31.25,0,0,0,0,30.53,31.25,31.25,0,0,0,0,30.53,30.18,30.18,0,0,0-4,15.27c0,13.79,8.54,25,19.08,25s19.09-11.19,19.09-25a30.19,30.19,0,0,0-4-15.27,31.25,31.25,0,0,0,0-30.53,31.25,31.25,0,0,0,0-30.53A31.25,31.25,0,0,0,1053.1,506.12Z"/><ellipse class="cls-3" cx="1038" cy="460.32" rx="19.08" ry="24.98"/><ellipse class="cls-3" cx="1038" cy="429.79" rx="19.08" ry="24.98"/><path class="cls-7" d="M1109.44,220.84a90.78,90.78,0,0,0,7.11-10.46l-50.15-8.23,54.23.4a91.52,91.52,0,0,0,1.75-72.42l-72.76,37.74,67.1-49.32a91.41,91.41,0,1,0-151,102.29,91.64,91.64,0,0,0-10.42,16.67l65.08,33.82L951,248a91.43,91.43,0,0,0,14.74,85.83,91.41,91.41,0,1,0,143.69,0A91.42,91.42,0,0,0,1109.44,220.84Z"/><path class="cls-8" d="M946.19,277.36a91,91,0,0,0,19.56,56.51,91.41,91.41,0,1,0,143.69,0C1121.69,318.32,946.19,267.1,946.19,277.36Z"/><g class="cls-9"><rect class="cls-10" x="216.79" y="429.74" width="16.99" height="2.21" transform="translate(-212.21 218.77) rotate(-36.53)"/><rect class="cls-10" x="220.42" y="434.65" width="16.99" height="2.21" transform="translate(-214.42 221.89) rotate(-36.53)"/><rect class="cls-10" x="263.04" y="492.17" width="16.99" height="2.21" transform="translate(-240.29 258.57) rotate(-36.53)"/><rect class="cls-10" x="259.41" y="487.27" width="16.99" height="2.21" transform="translate(-238.08 255.44) rotate(-36.53)"/><rect class="cls-10" x="237.98" y="461.24" width="21.28" height="2.21" transform="matrix(0.8, -0.6, 0.6, 0.8, -226.38, 238.85)"/><rect class="cls-10" x="232.51" y="451.86" width="18.24" height="2.21" transform="translate(-222.17 232.85) rotate(-36.53)"/><rect class="cls-10" x="235.99" y="456.56" width="18.24" height="2.21" transform="translate(-224.28 235.84) rotate(-36.53)"/><rect class="cls-10" x="242.96" y="465.95" width="18.24" height="2.21" transform="translate(-228.5 241.83) rotate(-36.53)"/><rect class="cls-10" x="246.44" y="470.65" width="18.24" height="2.21" transform="translate(-230.62 244.83) rotate(-36.53)"/><path class="cls-10" d="M280.25,491.57c-3.12-4-8.67-7-17-9.17l-9.81-2.61a27.31,27.31,0,0,1-20.39-27.44l.33-9.8c.3-8.79-1.19-15.46-4.4-19.83l3.55-2.62c3.82,5.19,5.59,12.79,5.26,22.6l-.33,9.79a22.92,22.92,0,0,0,17.11,23l9.82,2.6c9.24,2.45,15.55,5.95,19.29,10.71Z"/><path class="cls-10" d="M267.37,501.11l-3.62,2.53c-3.46-5-5-12-4.63-21.58l.36-10.15a22.91,22.91,0,0,0-17.05-23.07L233,446.3c-9.48-2.54-16.23-6.45-20.08-11.61l3.53-2.64c3.25,4.35,9.2,7.71,17.69,10l9.47,2.54a27.3,27.3,0,0,1,20.31,27.49l-.36,10.15C263.22,490.79,264.47,497,267.37,501.11Z"/><path class="cls-11" d="M341.46,334.5a126.1,126.1,0,0,0-13.1.7v47.56a76.56,76.56,0,1,1,13.1,152,77.45,77.45,0,0,1-13.1-1.14v47.55a123.67,123.67,0,1,0,13.1-246.65Z"/><rect class="cls-12" x="288.56" y="299.59" width="125.02" height="44.88" transform="translate(-103.07 465.92) rotate(-60.11)"/><rect class="cls-13" x="289.13" y="306.22" width="101.51" height="70.52" transform="translate(-125.55 465.98) rotate(-60.11)"/><rect class="cls-11" x="374.65" y="223.49" width="30.17" height="62.52" transform="translate(-25.35 465.7) rotate(-60.11)"/><rect class="cls-14" x="282.32" y="351.83" width="52.27" height="88.69" transform="translate(-188.74 466.17) rotate(-60.11)"/><rect class="cls-11" x="195.87" y="510.25" width="173.59" height="26.84"/><path class="cls-13" d="M314.7,496.29H433.92a26,26,0,0,1,26,26V581.9a0,0,0,0,1,0,0H288.69a0,0,0,0,1,0,0V522.29a26,26,0,0,1,26-26Z"/></g></svg>