<svg xmlns="http://www.w3.org/2000/svg" xmlns:xlink="http://www.w3.org/1999/xlink" viewBox="0 0 1088 687.96"><defs><style>.cls-1{fill:none;}.cls-2{fill:#3f3d56;}.cls-3{clip-path:url(#clip-path);}.cls-4{fill:#b7b7b7;}.cls-5{fill:#ff6584;}.cls-6{fill:#3a3a3a;}.cls-7{fill:#824ed2;}.cls-8{fill:#5050dd;}.cls-9{fill:#d34646;}.cls-10{fill:#fff;}.cls-11{fill:#3ecc5f;}.cls-12{fill:#f2f2f2;}.cls-13{opacity:0.1;}.cls-13,.cls-16{isolation:isolate;}.cls-14{fill:#2f2e41;}.cls-15{fill:#a8a8a8;}.cls-16{opacity:0.2;}</style><clipPath id="clip-path"><path id="Path_83" data-name="Path 83" class="cls-1" d="M961.81,454.44c-5.27,45.15-16.22,81.4-31.25,110.31-20,38.52-54.21,54-84.77,70.28A192,192,0,0,1,818.33,647c-55.61,19.3-117.85,14.18-166.74,4A658.15,658.15,0,0,0,547.5,637.8q-15-.67-30-.67c-15.42,0-293.07,5.29-360.67-131.57-16.69-33.76-28.13-75-32.24-125.27C113,238.17,176.91,144.83,259.36,83.82c156-115.41,369.76-110.57,523.43,7.88C885.15,170.6,981,290,961.81,454.44Z"/></clipPath></defs><title>3 - rev</title><g id="Layer_2" data-name="Layer 2"><g id="Layer_1-2" data-name="Layer 1"><g id="Group_12" data-name="Group 12"><g id="Group_11" data-name="Group 11"><path id="Path_83-2" data-name="Path 83" class="cls-2" d="M961.81,454.44c-5.27,45.15-16.22,81.4-31.25,110.31-20,38.52-54.21,54-84.77,70.28A192,192,0,0,1,818.33,647c-55.61,19.3-117.85,14.18-166.74,4A658.15,658.15,0,0,0,547.5,637.8q-15-.67-30-.67c-15.42,0-293.07,5.29-360.67-131.57-16.69-33.76-28.13-75-32.24-125.27C113,238.17,176.91,144.83,259.36,83.82c156-115.41,369.76-110.57,523.43,7.88C885.15,170.6,981,290,961.81,454.44Z"/><g class="cls-3"><rect class="cls-4" x="187.94" y="200.72" width="114.69" height="5.97"/><circle class="cls-5" cx="193.76" cy="202.14" r="13.44"/><rect class="cls-4" x="171.36" y="72.06" width="147.85" height="5.97"/><rect class="cls-4" x="171.36" y="237.83" width="147.85" height="5.97"/><rect class="cls-4" x="171.36" y="401.21" width="147.85" height="5.97"/><rect class="cls-4" x="187.94" y="272.92" width="114.69" height="5.97"/><rect class="cls-4" x="187.94" y="363.13" width="114.69" height="5.97"/><rect class="cls-4" x="187.94" y="108.58" width="114.69" height="5.97"/><rect class="cls-4" x="214.82" y="135.83" width="60.93" height="5.97"/><rect class="cls-4" x="214.82" y="175.85" width="60.93" height="5.97"/><rect class="cls-4" x="214.82" y="299.81" width="60.93" height="5.97"/><rect class="cls-6" x="214.82" y="339.83" width="60.93" height="5.97"/><circle class="cls-5" cx="193.76" cy="275.91" r="13.44"/><circle class="cls-5" cx="173.6" cy="239.02" r="13.44"/><circle class="cls-5" cx="220.64" cy="178.84" r="13.44"/><circle class="cls-5" cx="220.64" cy="302.79" r="13.44"/><circle class="cls-5" cx="247.52" cy="158.53" r="13.44"/><circle class="cls-7" cx="247.52" cy="322.51" r="13.44"/><circle class="cls-7" cx="193.76" cy="366.11" r="13.44"/><circle class="cls-7" cx="173.6" cy="403" r="13.44"/><circle class="cls-7" cx="220.64" cy="342.82" r="13.44"/><circle class="cls-8" cx="193.76" cy="111.94" r="13.44"/><circle class="cls-8" cx="173.6" cy="75.05" r="13.44"/><circle class="cls-7" cx="220.64" cy="138.82" r="13.44"/><circle class="cls-7" cx="302.63" cy="202.14" r="13.44"/><circle class="cls-8" cx="302.63" cy="275.91" r="13.44"/><circle class="cls-8" cx="322.79" cy="239.02" r="13.44"/><circle class="cls-7" cx="275.75" cy="178.84" r="13.44"/><circle class="cls-8" cx="275.75" cy="302.79" r="13.44"/><circle class="cls-9" cx="302.63" cy="366.11" r="13.44"/><circle class="cls-9" cx="322.79" cy="403" r="13.44"/><circle class="cls-9" cx="275.75" cy="342.82" r="13.44"/><circle class="cls-5" cx="302.63" cy="111.94" r="13.44"/><circle class="cls-5" cx="322.79" cy="75.05" r="13.44"/><circle class="cls-5" cx="275.75" cy="138.82" r="13.44"/><path class="cls-10" d="M394.25,64.94V109h8.14a6.13,6.13,0,0,1,4.15,1.12,3.78,3.78,0,0,1,1.23,2.93,3.74,3.74,0,0,1-1.23,2.89,6.19,6.19,0,0,1-4.15,1.12H378.06a6.19,6.19,0,0,1-4.15-1.12,3.79,3.79,0,0,1-1.23-2.93,3.74,3.74,0,0,1,1.23-2.89,6.13,6.13,0,0,1,4.15-1.12h8.14V75.43L379,77.32a11.05,11.05,0,0,1-2.59.47,3.45,3.45,0,0,1-2.65-1.22,4.21,4.21,0,0,1-1.12-3,3.68,3.68,0,0,1,.82-2.54,7.41,7.41,0,0,1,3.46-1.63Z"/><path class="cls-11" d="M456,87.19V96a27.73,27.73,0,0,1-4.54,15,14.48,14.48,0,0,1-13,7.2,15,15,0,0,1-8.23-2.15q-3.36-2.13-6.37-7.9a26,26,0,0,1-3-12.2V87.19a28,28,0,0,1,4.52-15,14.44,14.44,0,0,1,13-7.21,15.09,15.09,0,0,1,8.2,2.12q3.36,2.13,6.4,7.88A25.71,25.71,0,0,1,456,87.19Zm-8.1,0a18.67,18.67,0,0,0-3.65-11.48A7,7,0,0,0,438.43,73a7.22,7.22,0,0,0-6,3A17.79,17.79,0,0,0,429,87.19V96a18.49,18.49,0,0,0,3.69,11.48,6.93,6.93,0,0,0,5.86,2.71,7.22,7.22,0,0,0,5.94-3A17.76,17.76,0,0,0,447.94,96Z"/><path class="cls-10" d="M490.87,64.94V109H499a6.13,6.13,0,0,1,4.15,1.12,3.78,3.78,0,0,1,1.24,2.93,3.74,3.74,0,0,1-1.24,2.89A6.19,6.19,0,0,1,499,117.1H474.67a6.14,6.14,0,0,1-4.14-1.12,3.77,3.77,0,0,1-1.24-2.93,3.71,3.71,0,0,1,1.24-2.89c.82-.75,2.2-1.12,4.14-1.12h8.14V75.43l-7.19,1.89a11.2,11.2,0,0,1-2.6.47,3.45,3.45,0,0,1-2.65-1.22,4.21,4.21,0,0,1-1.12-3,3.68,3.68,0,0,1,.82-2.54,7.46,7.46,0,0,1,3.46-1.63Z"/><path class="cls-10" d="M582,64.94V109h8.14c1.94,0,3.32.37,4.14,1.12a3.75,3.75,0,0,1,1.24,2.93,3.71,3.71,0,0,1-1.24,2.89,6.14,6.14,0,0,1-4.14,1.12H565.79a6.19,6.19,0,0,1-4.15-1.12,3.77,3.77,0,0,1-1.24-2.93,3.71,3.71,0,0,1,1.24-2.89,6.13,6.13,0,0,1,4.15-1.12h8.13V75.43l-7.19,1.89a11.14,11.14,0,0,1-2.59.47,3.47,3.47,0,0,1-2.66-1.22,4.26,4.26,0,0,1-1.12-3,3.68,3.68,0,0,1,.83-2.54,7.41,7.41,0,0,1,3.46-1.63Z"/><path class="cls-11" d="M643.77,87.19V96a27.73,27.73,0,0,1-4.54,15,14.49,14.49,0,0,1-13,7.2,15,15,0,0,1-8.24-2.15q-3.36-2.13-6.36-7.9a25.89,25.89,0,0,1-3-12.2V87.19a28,28,0,0,1,4.52-15,14.43,14.43,0,0,1,13-7.21,15.13,15.13,0,0,1,8.2,2.12q3.36,2.13,6.4,7.88A25.83,25.83,0,0,1,643.77,87.19Zm-8.1,0A18.73,18.73,0,0,0,632,75.71,7,7,0,0,0,626.16,73a7.21,7.21,0,0,0-6,3,17.73,17.73,0,0,0-3.5,11.21V96a18.49,18.49,0,0,0,3.69,11.48,6.92,6.92,0,0,0,5.86,2.71,7.18,7.18,0,0,0,5.93-3,17.7,17.7,0,0,0,3.5-11.2Z"/><path class="cls-10" d="M678.59,64.94V109h8.14a6.13,6.13,0,0,1,4.15,1.12,3.78,3.78,0,0,1,1.23,2.93,3.74,3.74,0,0,1-1.23,2.89,6.19,6.19,0,0,1-4.15,1.12H662.4a6.19,6.19,0,0,1-4.15-1.12,3.8,3.8,0,0,1-1.24-2.93,3.74,3.74,0,0,1,1.24-2.89A6.13,6.13,0,0,1,662.4,109h8.14V75.43l-7.2,1.89a11.14,11.14,0,0,1-2.59.47,3.45,3.45,0,0,1-2.65-1.22,4.22,4.22,0,0,1-1.13-3,3.68,3.68,0,0,1,.83-2.54,7.41,7.41,0,0,1,3.46-1.63Z"/><path class="cls-10" d="M769.71,64.94V109h8.13c1.94,0,3.33.37,4.15,1.12a3.75,3.75,0,0,1,1.24,2.93A3.71,3.71,0,0,1,782,116a6.17,6.17,0,0,1-4.15,1.12H753.51a6.16,6.16,0,0,1-4.14-1.12,3.77,3.77,0,0,1-1.24-2.93,3.71,3.71,0,0,1,1.24-2.89,6.1,6.1,0,0,1,4.14-1.12h8.14V75.43l-7.19,1.89a11.2,11.2,0,0,1-2.6.47,3.47,3.47,0,0,1-2.65-1.22,4.21,4.21,0,0,1-1.12-3,3.68,3.68,0,0,1,.83-2.54,7.41,7.41,0,0,1,3.45-1.63Z"/><path class="cls-11" d="M831.5,87.19V96a27.82,27.82,0,0,1-4.54,15,14.49,14.49,0,0,1-13,7.2,15,15,0,0,1-8.24-2.15q-3.36-2.13-6.37-7.9a26,26,0,0,1-3-12.2V87.19a27.86,27.86,0,0,1,4.52-15,14.42,14.42,0,0,1,13-7.21A15.07,15.07,0,0,1,822,67.06q3.36,2.13,6.41,7.88A25.83,25.83,0,0,1,831.5,87.19Zm-8.1,0a18.67,18.67,0,0,0-3.66-11.48A7,7,0,0,0,813.89,73a7.24,7.24,0,0,0-6,3,17.79,17.79,0,0,0-3.5,11.21V96a18.5,18.5,0,0,0,3.7,11.48,6.91,6.91,0,0,0,5.86,2.71,7.2,7.2,0,0,0,5.93-3A17.76,17.76,0,0,0,823.4,96Z"/><path class="cls-10" d="M866.32,64.94V109h8.14a6.1,6.1,0,0,1,4.14,1.12,3.75,3.75,0,0,1,1.24,2.93A3.71,3.71,0,0,1,878.6,116a6.16,6.16,0,0,1-4.14,1.12H850.13A6.17,6.17,0,0,1,846,116a3.77,3.77,0,0,1-1.24-2.93,3.71,3.71,0,0,1,1.24-2.89c.82-.75,2.21-1.12,4.15-1.12h8.13V75.43l-7.19,1.89a11.14,11.14,0,0,1-2.59.47,3.47,3.47,0,0,1-2.66-1.22,4.26,4.26,0,0,1-1.12-3,3.68,3.68,0,0,1,.83-2.54A7.41,7.41,0,0,1,849,69.42Z"/><path class="cls-10" d="M394.25,136.11v44.1h8.14a6.13,6.13,0,0,1,4.15,1.12,4,4,0,0,1,0,5.81,6.13,6.13,0,0,1-4.15,1.12H378.06a6.13,6.13,0,0,1-4.15-1.12,4,4,0,0,1,0-5.81,6.13,6.13,0,0,1,4.15-1.12h8.14V146.6l-7.2,1.89a11.05,11.05,0,0,1-2.59.47,3.48,3.48,0,0,1-2.65-1.22,4.24,4.24,0,0,1-1.12-3,3.65,3.65,0,0,1,.82-2.53,7.31,7.31,0,0,1,3.46-1.63Z"/><path class="cls-11" d="M456,158.35v8.85a27.76,27.76,0,0,1-4.54,15.05,14.47,14.47,0,0,1-13,7.19,15,15,0,0,1-8.23-2.14q-3.36-2.15-6.37-7.9a26.06,26.06,0,0,1-3-12.2v-8.85a27.94,27.94,0,0,1,4.52-15,14.44,14.44,0,0,1,13-7.21,15,15,0,0,1,8.2,2.12q3.36,2.11,6.4,7.88A25.7,25.7,0,0,1,456,158.35Zm-8.1,0a18.66,18.66,0,0,0-3.65-11.47,7,7,0,0,0-5.86-2.72,7.23,7.23,0,0,0-6,3,17.76,17.76,0,0,0-3.5,11.2v8.85a18.46,18.46,0,0,0,3.69,11.47,6.91,6.91,0,0,0,5.86,2.72,7.22,7.22,0,0,0,5.94-3,17.78,17.78,0,0,0,3.49-11.2Z"/><path class="cls-10" d="M490.87,136.11v44.1H499a6.13,6.13,0,0,1,4.15,1.12,4,4,0,0,1,0,5.81,6.13,6.13,0,0,1-4.15,1.12H474.67c-1.94,0-3.32-.37-4.14-1.12a4,4,0,0,1,0-5.81c.82-.75,2.2-1.12,4.14-1.12h8.14V146.6l-7.19,1.89a11.2,11.2,0,0,1-2.6.47,3.48,3.48,0,0,1-2.65-1.22,4.24,4.24,0,0,1-1.12-3,3.65,3.65,0,0,1,.82-2.53,7.36,7.36,0,0,1,3.46-1.63Z"/><path class="cls-10" d="M582,136.11v44.1h8.14c1.94,0,3.32.37,4.14,1.12a4,4,0,0,1,0,5.81c-.82.75-2.2,1.12-4.14,1.12H565.79a6.13,6.13,0,0,1-4.15-1.12,4,4,0,0,1,0-5.81,6.13,6.13,0,0,1,4.15-1.12h8.13V146.6l-7.19,1.89a11.14,11.14,0,0,1-2.59.47,3.51,3.51,0,0,1-2.66-1.22,4.28,4.28,0,0,1-1.12-3,3.65,3.65,0,0,1,.83-2.53,7.31,7.31,0,0,1,3.46-1.63Z"/><path class="cls-11" d="M643.77,158.35v8.85a27.76,27.76,0,0,1-4.54,15.05,14.48,14.48,0,0,1-13,7.19A15,15,0,0,1,618,187.3q-3.36-2.15-6.36-7.9a26,26,0,0,1-3-12.2v-8.85a27.94,27.94,0,0,1,4.52-15,14.43,14.43,0,0,1,13-7.21,15,15,0,0,1,8.2,2.12q3.36,2.11,6.4,7.88A25.82,25.82,0,0,1,643.77,158.35Zm-8.1,0A18.72,18.72,0,0,0,632,146.88a7,7,0,0,0-5.86-2.72,7.22,7.22,0,0,0-6,3,17.7,17.7,0,0,0-3.5,11.2v8.85a18.46,18.46,0,0,0,3.69,11.47,6.9,6.9,0,0,0,5.86,2.72,7.18,7.18,0,0,0,5.93-3,17.72,17.72,0,0,0,3.5-11.2Z"/><path class="cls-10" d="M678.59,136.11v44.1h8.14a6.13,6.13,0,0,1,4.15,1.12,4,4,0,0,1,0,5.81,6.13,6.13,0,0,1-4.15,1.12H662.4a6.13,6.13,0,0,1-4.15-1.12,4,4,0,0,1,0-5.81,6.13,6.13,0,0,1,4.15-1.12h8.14V146.6l-7.2,1.89a11.14,11.14,0,0,1-2.59.47,3.48,3.48,0,0,1-2.65-1.22,4.25,4.25,0,0,1-1.13-3,3.65,3.65,0,0,1,.83-2.53,7.31,7.31,0,0,1,3.46-1.63Z"/><path class="cls-10" d="M394.25,207.27v44.1h8.14a6.19,6.19,0,0,1,4.15,1.12,3.79,3.79,0,0,1,1.23,2.93,3.74,3.74,0,0,1-1.23,2.89,6.13,6.13,0,0,1-4.15,1.12H378.06a6.13,6.13,0,0,1-4.15-1.12,3.78,3.78,0,0,1-1.23-2.93,3.74,3.74,0,0,1,1.23-2.89,6.19,6.19,0,0,1,4.15-1.12h8.14v-33.6l-7.2,1.88a10.67,10.67,0,0,1-2.59.48,3.48,3.48,0,0,1-2.65-1.22,4.26,4.26,0,0,1-1.12-3,3.7,3.7,0,0,1,.82-2.54,7.41,7.41,0,0,1,3.46-1.63Z"/><path class="cls-11" d="M456,229.52v8.84a27.79,27.79,0,0,1-4.54,15.06,14.49,14.49,0,0,1-13,7.19,15,15,0,0,1-8.23-2.14q-3.36-2.14-6.37-7.9a26.07,26.07,0,0,1-3-12.21v-8.84a28,28,0,0,1,4.52-15,14.46,14.46,0,0,1,13-7.21,15.09,15.09,0,0,1,8.2,2.12q3.36,2.13,6.4,7.89A25.68,25.68,0,0,1,456,229.52Zm-8.1,0A18.69,18.69,0,0,0,444.29,218a7,7,0,0,0-5.86-2.71,7.23,7.23,0,0,0-6,3,17.74,17.74,0,0,0-3.5,11.2v8.84a18.49,18.49,0,0,0,3.69,11.48,6.9,6.9,0,0,0,5.86,2.71,7.19,7.19,0,0,0,5.94-3,17.74,17.74,0,0,0,3.49-11.2Z"/><path class="cls-10" d="M490.87,207.27v44.1H499a6.19,6.19,0,0,1,4.15,1.12,3.8,3.8,0,0,1,1.24,2.93,3.74,3.74,0,0,1-1.24,2.89,6.13,6.13,0,0,1-4.15,1.12H474.67c-1.94,0-3.32-.37-4.14-1.12a3.75,3.75,0,0,1-1.24-2.93,3.71,3.71,0,0,1,1.24-2.89,6.14,6.14,0,0,1,4.14-1.12h8.14v-33.6l-7.19,1.88a10.82,10.82,0,0,1-2.6.48,3.48,3.48,0,0,1-2.65-1.22,4.26,4.26,0,0,1-1.12-3,3.7,3.7,0,0,1,.82-2.54,7.46,7.46,0,0,1,3.46-1.63Z"/><path class="cls-10" d="M769.71,207.27v44.1h8.13a6.17,6.17,0,0,1,4.15,1.12,3.77,3.77,0,0,1,1.24,2.93,3.71,3.71,0,0,1-1.24,2.89c-.82.75-2.21,1.12-4.15,1.12H753.51a6.1,6.1,0,0,1-4.14-1.12,3.75,3.75,0,0,1-1.24-2.93,3.71,3.71,0,0,1,1.24-2.89,6.16,6.16,0,0,1,4.14-1.12h8.14v-33.6l-7.19,1.88a10.82,10.82,0,0,1-2.6.48,3.5,3.5,0,0,1-2.65-1.22,4.26,4.26,0,0,1-1.12-3,3.7,3.7,0,0,1,.83-2.54,7.41,7.41,0,0,1,3.45-1.63Z"/><path class="cls-11" d="M831.5,229.52v8.84A27.88,27.88,0,0,1,827,253.42a14.5,14.5,0,0,1-13,7.19,15,15,0,0,1-8.24-2.14q-3.36-2.14-6.37-7.9a26.06,26.06,0,0,1-3-12.21v-8.84a27.86,27.86,0,0,1,4.52-15,14.44,14.44,0,0,1,13-7.21,15.07,15.07,0,0,1,8.19,2.12q3.36,2.13,6.41,7.89A25.79,25.79,0,0,1,831.5,229.52Zm-8.1,0A18.69,18.69,0,0,0,819.74,218a7,7,0,0,0-5.85-2.71,7.25,7.25,0,0,0-6,3,17.74,17.74,0,0,0-3.5,11.2v8.84a18.5,18.5,0,0,0,3.7,11.48,6.88,6.88,0,0,0,5.86,2.71,7.17,7.17,0,0,0,5.93-3,17.74,17.74,0,0,0,3.5-11.2Z"/><path class="cls-10" d="M866.32,207.27v44.1h8.14a6.16,6.16,0,0,1,4.14,1.12,3.77,3.77,0,0,1,1.24,2.93,3.71,3.71,0,0,1-1.24,2.89,6.1,6.1,0,0,1-4.14,1.12H850.13c-1.94,0-3.33-.37-4.15-1.12a3.75,3.75,0,0,1-1.24-2.93,3.71,3.71,0,0,1,1.24-2.89,6.17,6.17,0,0,1,4.15-1.12h8.13v-33.6l-7.19,1.88a10.76,10.76,0,0,1-2.59.48,3.51,3.51,0,0,1-2.66-1.22,4.3,4.3,0,0,1-1.12-3,3.7,3.7,0,0,1,.83-2.54,7.41,7.41,0,0,1,3.46-1.63Z"/><path class="cls-10" d="M394.25,278.44v44.1h8.14a6.13,6.13,0,0,1,4.15,1.12,3.78,3.78,0,0,1,1.23,2.93,3.74,3.74,0,0,1-1.23,2.89,6.19,6.19,0,0,1-4.15,1.12H378.06a6.19,6.19,0,0,1-4.15-1.12,3.79,3.79,0,0,1-1.23-2.93,3.74,3.74,0,0,1,1.23-2.89,6.13,6.13,0,0,1,4.15-1.12h8.14V288.93l-7.2,1.89a11.05,11.05,0,0,1-2.59.47,3.45,3.45,0,0,1-2.65-1.22,4.21,4.21,0,0,1-1.12-3,3.68,3.68,0,0,1,.82-2.54,7.41,7.41,0,0,1,3.46-1.63Z"/><path class="cls-11" d="M456,300.69v8.84a27.73,27.73,0,0,1-4.54,15.05,14.48,14.48,0,0,1-13,7.2,15,15,0,0,1-8.23-2.15q-3.36-2.13-6.37-7.9a26,26,0,0,1-3-12.2v-8.84a28,28,0,0,1,4.52-15,14.44,14.44,0,0,1,13-7.21,15.09,15.09,0,0,1,8.2,2.12q3.36,2.13,6.4,7.88A25.71,25.71,0,0,1,456,300.69Zm-8.1,0a18.67,18.67,0,0,0-3.65-11.48,7,7,0,0,0-5.86-2.71,7.22,7.22,0,0,0-6,3,17.79,17.79,0,0,0-3.5,11.21v8.84A18.49,18.49,0,0,0,432.65,321a6.93,6.93,0,0,0,5.86,2.71,7.22,7.22,0,0,0,5.94-3,17.76,17.76,0,0,0,3.49-11.2Z"/><path class="cls-10" d="M490.87,278.44v44.1H499a6.13,6.13,0,0,1,4.15,1.12,3.78,3.78,0,0,1,1.24,2.93,3.74,3.74,0,0,1-1.24,2.89A6.19,6.19,0,0,1,499,330.6H474.67a6.14,6.14,0,0,1-4.14-1.12,3.77,3.77,0,0,1-1.24-2.93,3.71,3.71,0,0,1,1.24-2.89c.82-.75,2.2-1.12,4.14-1.12h8.14V288.93l-7.19,1.89a11.2,11.2,0,0,1-2.6.47,3.45,3.45,0,0,1-2.65-1.22,4.21,4.21,0,0,1-1.12-3,3.68,3.68,0,0,1,.82-2.54,7.46,7.46,0,0,1,3.46-1.63Z"/><path class="cls-11" d="M643.77,300.69v8.84a27.73,27.73,0,0,1-4.54,15.05,14.49,14.49,0,0,1-13,7.2,15,15,0,0,1-8.24-2.15q-3.36-2.13-6.36-7.9a25.89,25.89,0,0,1-3-12.2v-8.84a28,28,0,0,1,4.52-15,14.43,14.43,0,0,1,13-7.21,15.13,15.13,0,0,1,8.2,2.12q3.36,2.13,6.4,7.88A25.83,25.83,0,0,1,643.77,300.69Zm-8.1,0A18.73,18.73,0,0,0,632,289.21a7,7,0,0,0-5.86-2.71,7.21,7.21,0,0,0-6,3,17.73,17.73,0,0,0-3.5,11.21v8.84A18.49,18.49,0,0,0,620.38,321a6.92,6.92,0,0,0,5.86,2.71,7.18,7.18,0,0,0,5.93-3,17.7,17.7,0,0,0,3.5-11.2Z"/><path class="cls-10" d="M678.59,278.44v44.1h8.14a6.13,6.13,0,0,1,4.15,1.12,3.78,3.78,0,0,1,1.23,2.93,3.74,3.74,0,0,1-1.23,2.89,6.19,6.19,0,0,1-4.15,1.12H662.4a6.19,6.19,0,0,1-4.15-1.12,3.8,3.8,0,0,1-1.24-2.93,3.74,3.74,0,0,1,1.24-2.89,6.13,6.13,0,0,1,4.15-1.12h8.14V288.93l-7.2,1.89a11.14,11.14,0,0,1-2.59.47,3.45,3.45,0,0,1-2.65-1.22,4.22,4.22,0,0,1-1.13-3,3.68,3.68,0,0,1,.83-2.54,7.41,7.41,0,0,1,3.46-1.63Z"/><path class="cls-10" d="M769.71,278.44v44.1h8.13c1.94,0,3.33.37,4.15,1.12a3.75,3.75,0,0,1,1.24,2.93,3.71,3.71,0,0,1-1.24,2.89,6.17,6.17,0,0,1-4.15,1.12H753.51a6.16,6.16,0,0,1-4.14-1.12,3.77,3.77,0,0,1-1.24-2.93,3.71,3.71,0,0,1,1.24-2.89,6.1,6.1,0,0,1,4.14-1.12h8.14V288.93l-7.19,1.89a11.2,11.2,0,0,1-2.6.47,3.47,3.47,0,0,1-2.65-1.22,4.21,4.21,0,0,1-1.12-3,3.68,3.68,0,0,1,.83-2.54,7.41,7.41,0,0,1,3.45-1.63Z"/><path class="cls-11" d="M831.5,300.69v8.84A27.82,27.82,0,0,1,827,324.58a14.49,14.49,0,0,1-13,7.2,15,15,0,0,1-8.24-2.15q-3.36-2.13-6.37-7.9a26,26,0,0,1-3-12.2v-8.84a27.86,27.86,0,0,1,4.52-15,14.42,14.42,0,0,1,13-7.21,15.07,15.07,0,0,1,8.19,2.12q3.36,2.13,6.41,7.88A25.83,25.83,0,0,1,831.5,300.69Zm-8.1,0a18.67,18.67,0,0,0-3.66-11.48,7,7,0,0,0-5.85-2.71,7.24,7.24,0,0,0-6,3,17.79,17.79,0,0,0-3.5,11.21v8.84a18.5,18.5,0,0,0,3.7,11.48,6.91,6.91,0,0,0,5.86,2.71,7.2,7.2,0,0,0,5.93-3,17.76,17.76,0,0,0,3.5-11.2Z"/><path class="cls-10" d="M866.32,278.44v44.1h8.14a6.1,6.1,0,0,1,4.14,1.12,3.75,3.75,0,0,1,1.24,2.93,3.71,3.71,0,0,1-1.24,2.89,6.16,6.16,0,0,1-4.14,1.12H850.13a6.17,6.17,0,0,1-4.15-1.12,3.77,3.77,0,0,1-1.24-2.93,3.71,3.71,0,0,1,1.24-2.89c.82-.75,2.21-1.12,4.15-1.12h8.13V288.93l-7.19,1.89a11.14,11.14,0,0,1-2.59.47,3.47,3.47,0,0,1-2.66-1.22,4.26,4.26,0,0,1-1.12-3,3.68,3.68,0,0,1,.83-2.54,7.41,7.41,0,0,1,3.46-1.63Z"/><path class="cls-10" d="M394.25,349.61v44.1h8.14a6.13,6.13,0,0,1,4.15,1.12,4,4,0,0,1,0,5.81,6.13,6.13,0,0,1-4.15,1.12H378.06a6.13,6.13,0,0,1-4.15-1.12,4,4,0,0,1,0-5.81,6.13,6.13,0,0,1,4.15-1.12h8.14V360.1L379,362a11.05,11.05,0,0,1-2.59.47,3.48,3.48,0,0,1-2.65-1.22,4.24,4.24,0,0,1-1.12-3,3.65,3.65,0,0,1,.82-2.53,7.31,7.31,0,0,1,3.46-1.63Z"/><path class="cls-11" d="M456,371.85v8.85a27.76,27.76,0,0,1-4.54,15.05,14.47,14.47,0,0,1-13,7.19,15,15,0,0,1-8.23-2.14q-3.36-2.15-6.37-7.9a26.06,26.06,0,0,1-3-12.2v-8.85a27.94,27.94,0,0,1,4.52-15,14.44,14.44,0,0,1,13-7.21,15,15,0,0,1,8.2,2.12q3.36,2.11,6.4,7.88A25.7,25.7,0,0,1,456,371.85Zm-8.1,0a18.66,18.66,0,0,0-3.65-11.47,7,7,0,0,0-5.86-2.72,7.23,7.23,0,0,0-6,3,17.76,17.76,0,0,0-3.5,11.2v8.85a18.46,18.46,0,0,0,3.69,11.47,6.91,6.91,0,0,0,5.86,2.72,7.22,7.22,0,0,0,5.94-3,17.78,17.78,0,0,0,3.49-11.2Z"/><path class="cls-10" d="M490.87,349.61v44.1H499a6.13,6.13,0,0,1,4.15,1.12,4,4,0,0,1,0,5.81,6.13,6.13,0,0,1-4.15,1.12H474.67c-1.94,0-3.32-.37-4.14-1.12a4,4,0,0,1,0-5.81c.82-.75,2.2-1.12,4.14-1.12h8.14V360.1L475.62,362a11.2,11.2,0,0,1-2.6.47,3.48,3.48,0,0,1-2.65-1.22,4.24,4.24,0,0,1-1.12-3,3.65,3.65,0,0,1,.82-2.53,7.36,7.36,0,0,1,3.46-1.63Z"/><path class="cls-10" d="M582,349.61v44.1h8.14c1.94,0,3.32.37,4.14,1.12a4,4,0,0,1,0,5.81c-.82.75-2.2,1.12-4.14,1.12H565.79a6.13,6.13,0,0,1-4.15-1.12,4,4,0,0,1,0-5.81,6.13,6.13,0,0,1,4.15-1.12h8.13V360.1L566.73,362a11.14,11.14,0,0,1-2.59.47,3.51,3.51,0,0,1-2.66-1.22,4.28,4.28,0,0,1-1.12-3,3.65,3.65,0,0,1,.83-2.53,7.31,7.31,0,0,1,3.46-1.63Z"/><path class="cls-11" d="M643.77,371.85v8.85a27.76,27.76,0,0,1-4.54,15.05,14.48,14.48,0,0,1-13,7.19A15,15,0,0,1,618,400.8q-3.36-2.15-6.36-7.9a26,26,0,0,1-3-12.2v-8.85a27.94,27.94,0,0,1,4.52-15,14.43,14.43,0,0,1,13-7.21,15,15,0,0,1,8.2,2.12q3.36,2.11,6.4,7.88A25.82,25.82,0,0,1,643.77,371.85Zm-8.1,0A18.72,18.72,0,0,0,632,360.38a7,7,0,0,0-5.86-2.72,7.22,7.22,0,0,0-6,3,17.7,17.7,0,0,0-3.5,11.2v8.85a18.46,18.46,0,0,0,3.69,11.47,6.9,6.9,0,0,0,5.86,2.72,7.18,7.18,0,0,0,5.93-3,17.72,17.72,0,0,0,3.5-11.2Z"/><path class="cls-10" d="M678.59,349.61v44.1h8.14a6.13,6.13,0,0,1,4.15,1.12,4,4,0,0,1,0,5.81,6.13,6.13,0,0,1-4.15,1.12H662.4a6.13,6.13,0,0,1-4.15-1.12,4,4,0,0,1,0-5.81,6.13,6.13,0,0,1,4.15-1.12h8.14V360.1l-7.2,1.89a11.14,11.14,0,0,1-2.59.47,3.48,3.48,0,0,1-2.65-1.22,4.25,4.25,0,0,1-1.13-3,3.65,3.65,0,0,1,.83-2.53,7.31,7.31,0,0,1,3.46-1.63Z"/><path class="cls-10" d="M769.71,349.61v44.1h8.13c1.94,0,3.33.37,4.15,1.12a4,4,0,0,1,0,5.81c-.82.75-2.21,1.12-4.15,1.12H753.51a6.1,6.1,0,0,1-4.14-1.12,4,4,0,0,1,0-5.81,6.1,6.1,0,0,1,4.14-1.12h8.14V360.1L754.46,362a11.2,11.2,0,0,1-2.6.47,3.5,3.5,0,0,1-2.65-1.22,4.24,4.24,0,0,1-1.12-3,3.65,3.65,0,0,1,.83-2.53,7.32,7.32,0,0,1,3.45-1.63Z"/><path class="cls-11" d="M831.5,371.85v8.85A27.84,27.84,0,0,1,827,395.75a14.48,14.48,0,0,1-13,7.19,15,15,0,0,1-8.24-2.14q-3.36-2.15-6.37-7.9a26.05,26.05,0,0,1-3-12.2v-8.85a27.85,27.85,0,0,1,4.52-15,14.42,14.42,0,0,1,13-7.21,15,15,0,0,1,8.19,2.12q3.36,2.11,6.41,7.88A25.82,25.82,0,0,1,831.5,371.85Zm-8.1,0a18.66,18.66,0,0,0-3.66-11.47,7,7,0,0,0-5.85-2.72,7.25,7.25,0,0,0-6,3,17.76,17.76,0,0,0-3.5,11.2v8.85a18.47,18.47,0,0,0,3.7,11.47,6.89,6.89,0,0,0,5.86,2.72,7.2,7.2,0,0,0,5.93-3,17.78,17.78,0,0,0,3.5-11.2Z"/><path class="cls-10" d="M866.32,349.61v44.1h8.14a6.1,6.1,0,0,1,4.14,1.12,4,4,0,0,1,0,5.81,6.1,6.1,0,0,1-4.14,1.12H850.13c-1.94,0-3.33-.37-4.15-1.12a4,4,0,0,1,0-5.81c.82-.75,2.21-1.12,4.15-1.12h8.13V360.1L851.07,362a11.14,11.14,0,0,1-2.59.47,3.51,3.51,0,0,1-2.66-1.22,4.28,4.28,0,0,1-1.12-3,3.65,3.65,0,0,1,.83-2.53,7.31,7.31,0,0,1,3.46-1.63Z"/><path class="cls-4" d="M575.93,318.85A16.06,16.06,0,1,1,592,302.79,16.08,16.08,0,0,1,575.93,318.85Zm0-27.12A11.06,11.06,0,1,0,587,302.79,11.07,11.07,0,0,0,575.93,291.73Z"/><circle class="cls-4" cx="575.93" cy="302.79" r="5.16"/><path class="cls-4" d="M626.24,255.08A16.06,16.06,0,1,1,642.3,239,16.07,16.07,0,0,1,626.24,255.08Zm0-27.12A11.06,11.06,0,1,0,637.3,239,11.08,11.08,0,0,0,626.24,228Z"/><circle class="cls-4" cx="626.24" cy="239.02" r="5.16"/><path class="cls-4" d="M674.54,255.08A16.06,16.06,0,1,1,690.6,239,16.08,16.08,0,0,1,674.54,255.08Zm0-27.12A11.06,11.06,0,1,0,685.6,239,11.08,11.08,0,0,0,674.54,228Z"/><circle class="cls-4" cx="674.54" cy="239.02" r="5.16"/><path class="cls-4" d="M765.66,181.46a16.06,16.06,0,1,1,16.06-16.06A16.09,16.09,0,0,1,765.66,181.46Zm0-27.12a11.06,11.06,0,1,0,11.06,11.06A11.07,11.07,0,0,0,765.66,154.34Z"/><circle class="cls-4" cx="765.66" cy="165.4" r="5.16"/><path class="cls-4" d="M862.27,181.46a16.06,16.06,0,1,1,16.06-16.06A16.09,16.09,0,0,1,862.27,181.46Zm0-27.12a11.06,11.06,0,1,0,11.06,11.06A11.07,11.07,0,0,0,862.27,154.34Z"/><circle class="cls-4" cx="862.27" cy="165.4" r="5.16"/><rect class="cls-4" x="523.13" y="300.29" width="39.24" height="5"/><rect class="cls-4" x="571.85" y="266.5" width="54.07" height="5" transform="translate(2.17 542.77) rotate(-48.83)"/><rect class="cls-4" x="639.8" y="236.52" width="21.19" height="5"/><rect class="cls-4" x="673.85" y="198.24" width="90.3" height="5" transform="translate(36.94 504.12) rotate(-39.58)"/><rect class="cls-4" x="779.22" y="162.9" width="69.49" height="5"/></g><path id="Path_84" data-name="Path 84" class="cls-12" d="M930.56,564.75c-20,38.52-47.21,64-77.77,80.28A192,192,0,0,1,825.33,657c-55.61,19.3-117.85,14.18-166.74,4A658.15,658.15,0,0,0,554.5,647.8q-15-.67-30-.67-23.13,0-46.25,1.72c-100.17,7.36-253.82-6.43-321.42-143.29L326,178,389,339.58,409,391.17l55.37-76L493,276,623.2,425.23,660,344,914.78,551.88,929,563.47Z"/><path id="Path_85" data-name="Path 85" class="cls-13" d="M302,283l26-57,36,83-31-60Z"/><path id="Path_86" data-name="Path 86" class="cls-13" d="M554.5,647.8q-15-.67-30-.67L409,391.17Z"/><path id="Path_87" data-name="Path 87" class="cls-13" d="M464.41,315.19,493,293,623,443,491,315Z"/><path id="Path_88" data-name="Path 88" class="cls-13" d="M852.79,645A192,192,0,0,1,825.33,657L623.2,425.23Z"/><circle id="Ellipse_11" data-name="Ellipse 11" class="cls-12" cx="482" cy="101.96" r="3"/><circle id="Ellipse_12" data-name="Ellipse 12" class="cls-12" cx="399" cy="204.96" r="3"/><circle id="Ellipse_13" data-name="Ellipse 13" class="cls-12" cx="602" cy="222.96" r="2"/><circle id="Ellipse_14" data-name="Ellipse 14" class="cls-12" cx="182" cy="267.96" r="2"/><circle id="Ellipse_15" data-name="Ellipse 15" class="cls-12" cx="614" cy="98.96" r="2"/><circle id="Ellipse_16" data-name="Ellipse 16" class="cls-12" cx="738" cy="194.96" r="2"/><circle id="Ellipse_17" data-name="Ellipse 17" class="cls-12" cx="860" cy="346.96" r="2"/><path id="Path_89" data-name="Path 89" class="cls-12" d="M306,121.22h-2.76v-2.76h-1.48v2.76H299v1.48h2.76v2.76h1.48V122.7H306Z"/><path id="Path_90" data-name="Path 90" class="cls-12" d="M848,424.22h-2.76v-2.76h-1.48v2.76H841v1.48h2.76v2.76h1.48V425.7H848Z"/><path id="Path_91" data-name="Path 91" class="cls-2" d="M1088,614c0,16.57-243.56,74-544,74S0,630.53,0,614s243.56,14,544,14S1088,597.39,1088,614Z"/><path id="Path_92" data-name="Path 92" class="cls-13" d="M1088,614c0,16.57-243.56,74-544,74S0,630.53,0,614s243.56,14,544,14S1088,597.39,1088,614Z"/><path id="Ellipse_18" data-name="Ellipse 18" class="cls-2" d="M544,584c300.44,0,544,13.43,544,30S844.44,652.5,544,652.5,0,630.53,0,614,243.56,584,544,584Z"/><path id="Path_93" data-name="Path 93" class="cls-5" d="M568,572c0,33.14-14.78,24-33,24s-33,9.14-33-24,33-96,33-96S568,538.83,568,572Z"/><path id="Path_94" data-name="Path 94" class="cls-13" d="M550,584.64c0,15.06-6.72,10.91-15,10.91s-15,4.15-15-10.91S535,541,535,541,550,569.58,550,584.64Z"/><path id="Rectangle_97" data-name="Rectangle 97" class="cls-14" d="M498,605h74a9,9,0,0,1,9,9h0a9,9,0,0,1-9,9H498a9,9,0,0,1-9-9h0A9,9,0,0,1,498,605Z"/><path id="Rectangle_98" data-name="Rectangle 98" class="cls-14" d="M498,587h74a9,9,0,0,1,9,9h0a9,9,0,0,1-9,9H498a9,9,0,0,1-9-9h0A9,9,0,0,1,498,587Z"/><path id="Path_95" data-name="Path 95" class="cls-2" d="M137,490.53c0,55.34,34.72,100.12,77.63,100.12"/><path id="Path_96" data-name="Path 96" class="cls-7" d="M214.63,590.65c0-56,38.74-101.25,86.62-101.25"/><path id="Path_97" data-name="Path 97" class="cls-7" d="M165.13,495.55c0,52.57,22.13,95.1,49.5,95.1"/><path id="Path_98" data-name="Path 98" class="cls-2" d="M214.63,590.65c0-71.51,44.78-129.37,100.12-129.37"/><path id="Path_99" data-name="Path 99" class="cls-15" d="M198.3,591.36s11-.34,14.33-2.7,16.93-5.18,17.75-1.39,16.55,18.84,4.12,18.94-28.88-1.94-32.19-4S198.3,591.36,198.3,591.36Z"/><path id="Path_100" data-name="Path 100" class="cls-16" d="M234.72,604.89c-12.43.1-28.88-1.94-32.19-3.95-2.53-1.54-3.53-7.05-3.87-9.59h-.37s.7,8.88,4,10.9,19.76,4,32.19,4c3.59,0,4.83-1.3,4.76-3.2C238.76,604.16,237.39,604.87,234.72,604.89Z"/><path id="Path_101" data-name="Path 101" class="cls-2" d="M721.43,527.06c0,38,23.86,68.8,53.34,68.8"/><path id="Path_102" data-name="Path 102" class="cls-7" d="M774.77,595.86c0-38.45,26.62-69.57,59.52-69.57"/><path id="Path_103" data-name="Path 103" class="cls-7" d="M740.76,530.51c0,36.12,15.21,65.35,34,65.35"/><path id="Path_104" data-name="Path 104" class="cls-2" d="M774.77,595.86c0-49.14,30.77-88.9,68.8-88.9"/><path id="Path_105" data-name="Path 105" class="cls-15" d="M763.55,596.35s7.56-.23,9.84-1.86,11.64-3.56,12.2-1,11.37,13,2.83,13-19.84-1.33-22.12-2.71S763.55,596.35,763.55,596.35Z"/><path id="Path_106" data-name="Path 106" class="cls-16" d="M788.57,605.65c-8.54.06-19.84-1.33-22.12-2.72-1.73-1.06-2.42-4.84-2.65-6.59h-.25s.48,6.1,2.75,7.49,13.58,2.78,22.12,2.71c2.47,0,3.32-.9,3.27-2.2C791.35,605.14,790.41,605.63,788.57,605.65Z"/><path id="Path_107" data-name="Path 107" class="cls-15" d="M893.81,618.7s11.36-1.73,14.5-4.59,16.89-7.49,18.22-3.67,19.49,17.45,6.63,19.11-30.15,1.61-33.83-.07S893.81,618.7,893.81,618.7Z"/><path id="Path_108" data-name="Path 108" class="cls-16" d="M933.23,628.15c-12.86,1.66-30.15,1.61-33.84-.06-2.8-1.28-4.53-6.86-5.2-9.45l-.38.06s1.84,9.11,5.52,10.78,21,1.73,33.83.07c3.72-.48,4.84-2,4.53-3.91C937.32,626.89,936,627.8,933.23,628.15Z"/><path id="Path_109" data-name="Path 109" class="cls-15" d="M614.26,617.88s9.59-1.46,12.24-3.87,14.25-6.32,15.37-3.1,16.45,14.73,5.6,16.13S622,628.39,618.92,627,614.26,617.88,614.26,617.88Z"/><path id="Path_110" data-name="Path 110" class="cls-16" d="M647.52,625.86c-10.85,1.4-25.44,1.35-28.55-.06-2.37-1.07-3.83-5.79-4.39-8l-.32,0s1.55,7.68,4.65,9.1,17.7,1.45,28.56,0c3.13-.4,4.08-1.65,3.82-3.3C651,624.79,649.86,625.56,647.52,625.86Z"/><path id="Path_111" data-name="Path 111" class="cls-15" d="M122.39,613.09s7.46-1.14,9.53-3,11.1-4.92,12-2.4,12.8,11.46,4.35,12.55-19.81,1.06-22.23,0S122.39,613.09,122.39,613.09Z"/><path id="Path_112" data-name="Path 112" class="cls-16" d="M148.29,619.3c-8.45,1.09-19.82,1.06-22.23,0-1.85-.84-3-4.51-3.42-6.21l-.25,0s1.2,6,3.62,7.09,13.78,1.13,22.23,0c2.44-.32,3.18-1.29,3-2.57C151,618.47,150.1,619.07,148.29,619.3Z"/><path id="Path_113" data-name="Path 113" class="cls-13" d="M383.7,601.32c0,30.22-42.12,20.87-93.7,20.87s-93.07,9.35-93.07-20.87,42.11-36.79,93.69-36.79S383.7,571.1,383.7,601.32Z"/><path id="Path_114" data-name="Path 114" class="cls-2" d="M383.7,593.88c0,30.22-42.12,20.87-93.7,20.87s-93.07,9.35-93.07-20.87,42.11-36.8,93.69-36.8S383.7,563.66,383.7,593.88Z"/></g></g><ellipse class="cls-13" cx="348.2" cy="634.53" rx="133.57" ry="6.47"/></g></g></svg>